<svg xmlns="http://www.w3.org/2000/svg" viewBox="0 0 120 120" width="120" height="120" role="img" aria-label="Team member portrait"><rect width="120" height="120" fill="#E0F2FE"/><ellipse cx="60" cy="118" rx="52" ry="16" fill="#000000" opacity=".05"/><path d="M12 120 C12 95 34 84 60 84 C86 84 108 95 108 120 Z" fill="#2A3F8F"/><path d="M60 84 C70 84 80 86 87 90 C80 96 70 99 60 99 C50 99 40 96 33 90 C40 86 50 84 60 84 Z" fill="#ffffff" opacity=".12"/><path d="M52 72 h16 v10 c0 6 -16 6 -16 0 Z" fill="#B6845B"/><circle cx="37" cy="55" r="5.5" fill="#D49A6A"/><circle cx="83" cy="55" r="5.5" fill="#D49A6A"/><circle cx="60" cy="53" r="25" fill="#D49A6A"/><circle cx="48" cy="60" r="4.5" fill="#F2728A" opacity=".18"/><circle cx="72" cy="60" r="4.5" fill="#F2728A" opacity=".18"/><path d="M45 47 q5 -3 10 0" stroke="#2A2536" stroke-width="2" fill="none" stroke-linecap="round" opacity=".55"/><path d="M65 47 q5 -3 10 0" stroke="#2A2536" stroke-width="2" fill="none" stroke-linecap="round" opacity=".55"/><circle cx="51" cy="53" r="2.8" fill="#2A2536"/><circle cx="69" cy="53" r="2.8" fill="#2A2536"/><path d="M60 56 v4" stroke="#A97B54" stroke-width="2" stroke-linecap="round" opacity=".6"/><path d="M52 63 q8 7 16 0" stroke="#2A2536" stroke-width="2.2" fill="none" stroke-linecap="round"/><path d="M33 52 C33 28 88 25 87 50 C86 41 70 33 56 35 C47 36 40 43 34 53 Z" fill="#3B2A20"/><path d="M52 35 C60 41 74 41 82 38" stroke="#291D16" stroke-width="2" fill="none" opacity=".5"/><g stroke="#2A2536" stroke-width="2.4" fill="#9ED7FF" fill-opacity=".18"><rect x="42" y="47" width="14" height="12" rx="5"/><rect x="64" y="47" width="14" height="12" rx="5"/><path d="M56 52 h8" fill="none"/></g></svg>