<svg xmlns="http://www.w3.org/2000/svg" viewBox="0 0 120 120" width="120" height="120" role="img" aria-label="Team member portrait"><rect width="120" height="120" fill="#ECFDF5"/><ellipse cx="60" cy="118" rx="52" ry="16" fill="#000000" opacity=".05"/><path d="M12 120 C12 95 34 84 60 84 C86 84 108 95 108 120 Z" fill="#15803D"/><path d="M60 84 C70 84 80 86 87 90 C80 96 70 99 60 99 C50 99 40 96 33 90 C40 86 50 84 60 84 Z" fill="#ffffff" opacity=".12"/><path d="M52 72 h16 v10 c0 6 -16 6 -16 0 Z" fill="#8D5B35"/><circle cx="37" cy="55" r="5.5" fill="#A56A3E"/><circle cx="83" cy="55" r="5.5" fill="#A56A3E"/><circle cx="60" cy="53" r="25" fill="#A56A3E"/><circle cx="48" cy="60" r="4.5" fill="#F2728A" opacity=".18"/><circle cx="72" cy="60" r="4.5" fill="#F2728A" opacity=".18"/><path d="M45 47 q5 -3 10 0" stroke="#2A2536" stroke-width="2" fill="none" stroke-linecap="round" opacity=".55"/><path d="M65 47 q5 -3 10 0" stroke="#2A2536" stroke-width="2" fill="none" stroke-linecap="round" opacity=".55"/><circle cx="51" cy="53" r="2.8" fill="#2A2536"/><circle cx="69" cy="53" r="2.8" fill="#2A2536"/><path d="M60 56 v4" stroke="#845431" stroke-width="2" stroke-linecap="round" opacity=".6"/><path d="M52 63 q8 7 16 0" stroke="#2A2536" stroke-width="2.2" fill="none" stroke-linecap="round"/><path d="M38 52 C39 72 49 82 60 82 C71 82 81 72 82 52 C77 60 70 63 60 63 C50 63 43 60 38 52 Z" fill="#15110E"/><path d="M52 63 q8 7 16 0" stroke="#2A2536" stroke-width="2.2" fill="none" stroke-linecap="round"/><path d="M37 50 C37 33 83 33 83 50 C83 44 76 36 60 36 C44 36 37 44 37 50 Z" fill="#15110E"/></svg>