<svg xmlns="http://www.w3.org/2000/svg" viewBox="0 0 120 120" fill="none" role="img" aria-label="Northwind Luxury Real Estate crest">
  <defs>
    <linearGradient id="nwGold" x1="0" y1="0" x2="0" y2="1">
      <stop offset="0" stop-color="#F6DE9B"/>
      <stop offset=".5" stop-color="#D6B057"/>
      <stop offset="1" stop-color="#A9812F"/>
    </linearGradient>
  </defs>
  <g stroke="url(#nwGold)" fill="url(#nwGold)" stroke-linejoin="round" stroke-linecap="round">
    <!-- crown -->
    <path d="M47 39 50.5 27 55 33 60 23 65 33 69.5 27 73 39Z" stroke-width="1.4"/>
    <circle cx="50.5" cy="26" r="1.7"/>
    <circle cx="60" cy="21.4" r="1.9"/>
    <circle cx="69.5" cy="26" r="1.7"/>
    <path d="M60 21.4V17M58 18.6h4" stroke-width="1.3" fill="none"/>
    <!-- left flourish -->
    <path d="M42 60c-13-2-18 8-10 12 3 1.5 7 1 10-1.4" fill="none" stroke-width="1.9"/>
    <path d="M34 67c-4.5-.3-6.5 2.2-4 4.2" fill="none" stroke-width="1.5"/>
    <!-- right flourish -->
    <path d="M78 60c13-2 18 8 10 12-3 1.5-7 1-10-1.4" fill="none" stroke-width="1.9"/>
    <path d="M86 67c4.5-.3 6.5 2.2 4 4.2" fill="none" stroke-width="1.5"/>
    <!-- shield -->
    <path d="M40 42h40v25c0 12.5-9 21-20 27-11-6-20-14.5-20-27z" fill="none" stroke-width="2.6"/>
    <path d="M44.5 46h31v21.5c0 10-7 17-15.5 22.2C51.5 84.5 44.5 77.5 44.5 67.5z" fill="none" stroke-width=".9" opacity=".55"/>
  </g>
  <text x="60" y="76" text-anchor="middle" font-family="Marcellus, Georgia, serif" font-size="26" letter-spacing="0" fill="url(#nwGold)">NW</text>
</svg>
