<svg xmlns="http://www.w3.org/2000/svg" viewBox="0 0 120 120" width="120" height="120" role="img" aria-label="Team member portrait"><rect width="120" height="120" fill="#EEF2FF"/><ellipse cx="60" cy="118" rx="52" ry="16" fill="#000000" opacity=".05"/><path d="M29 52 C29 24 91 24 91 52 L91 96 C86 86 82 88 80 90 L80 56 C80 40 70 33 60 33 C50 33 40 40 40 56 L40 90 C38 88 34 86 29 96 Z" fill="#8A3B1E"/><path d="M12 120 C12 95 34 84 60 84 C86 84 108 95 108 120 Z" fill="#4F46E5"/><path d="M60 84 C70 84 80 86 87 90 C80 96 70 99 60 99 C50 99 40 96 33 90 C40 86 50 84 60 84 Z" fill="#ffffff" opacity=".12"/><path d="M52 72 h16 v10 c0 6 -16 6 -16 0 Z" fill="#CEA885"/><circle cx="37" cy="55" r="5.5" fill="#F0C49B"/><circle cx="83" cy="55" r="5.5" fill="#F0C49B"/><circle cx="60" cy="53" r="25" fill="#F0C49B"/><circle cx="48" cy="60" r="4.5" fill="#F2728A" opacity=".18"/><circle cx="72" cy="60" r="4.5" fill="#F2728A" opacity=".18"/><path d="M45 47 q5 -3 10 0" stroke="#2A2536" stroke-width="2" fill="none" stroke-linecap="round" opacity=".55"/><path d="M65 47 q5 -3 10 0" stroke="#2A2536" stroke-width="2" fill="none" stroke-linecap="round" opacity=".55"/><circle cx="51" cy="53" r="2.8" fill="#2A2536"/><circle cx="69" cy="53" r="2.8" fill="#2A2536"/><path d="M60 56 v4" stroke="#C09C7C" stroke-width="2" stroke-linecap="round" opacity=".6"/><path d="M52 63 q8 7 16 0" stroke="#2A2536" stroke-width="2.2" fill="none" stroke-linecap="round"/><path d="M35 52 C35 30 85 30 85 52 C85 44 77 35 60 35 C43 35 35 44 35 52 Z" fill="#8A3B1E"/></svg>