<svg xmlns="http://www.w3.org/2000/svg" viewBox="0 0 120 120" width="120" height="120" role="img" aria-label="Team member portrait"><rect width="120" height="120" fill="#F5F3FF"/><ellipse cx="60" cy="118" rx="52" ry="16" fill="#000000" opacity=".05"/><path d="M33 41 C40 27 80 27 87 41 C89 47 88 52 86 55 C86 45 78 35 60 35 C42 35 34 45 34 55 C32 52 31 47 33 41 Z" fill="#1C1726"/><circle cx="60" cy="21" r="8.5" fill="#1C1726"/><circle cx="60" cy="21" r="8.5" fill="#000000" opacity=".10"/><path d="M12 120 C12 95 34 84 60 84 C86 84 108 95 108 120 Z" fill="#0E9AA6"/><path d="M60 84 C70 84 80 86 87 90 C80 96 70 99 60 99 C50 99 40 96 33 90 C40 86 50 84 60 84 Z" fill="#ffffff" opacity=".12"/><path d="M52 72 h16 v10 c0 6 -16 6 -16 0 Z" fill="#AC6E40"/><circle cx="37" cy="55" r="5.5" fill="#C8814B"/><circle cx="83" cy="55" r="5.5" fill="#C8814B"/><circle cx="60" cy="53" r="25" fill="#C8814B"/><circle cx="48" cy="60" r="4.5" fill="#F2728A" opacity=".18"/><circle cx="72" cy="60" r="4.5" fill="#F2728A" opacity=".18"/><path d="M45 47 q5 -3 10 0" stroke="#2A2536" stroke-width="2" fill="none" stroke-linecap="round" opacity=".55"/><path d="M65 47 q5 -3 10 0" stroke="#2A2536" stroke-width="2" fill="none" stroke-linecap="round" opacity=".55"/><circle cx="51" cy="53" r="2.8" fill="#2A2536"/><circle cx="69" cy="53" r="2.8" fill="#2A2536"/><path d="M60 56 v4" stroke="#A0673C" stroke-width="2" stroke-linecap="round" opacity=".6"/><path d="M52 63 q8 7 16 0" stroke="#2A2536" stroke-width="2.2" fill="none" stroke-linecap="round"/><path d="M33 41 C40 27 80 27 87 41 C89 47 88 52 86 55 C86 45 78 35 60 35 C42 35 34 45 34 55 C32 52 31 47 33 41 Z" fill="#1C1726"/><circle cx="60" cy="21" r="8.5" fill="#1C1726"/><circle cx="60" cy="21" r="8.5" fill="#000000" opacity=".10"/></svg>