<svg xmlns="http://www.w3.org/2000/svg" viewBox="0 0 120 120" width="120" height="120" role="img" aria-label="Team member portrait"><rect width="120" height="120" fill="#E9EDF6"/><ellipse cx="60" cy="118" rx="52" ry="16" fill="#000000" opacity=".05"/><path d="M12 120 C12 95 34 84 60 84 C86 84 108 95 108 120 Z" fill="#475569"/><path d="M60 84 C70 84 80 86 87 90 C80 96 70 99 60 99 C50 99 40 96 33 90 C40 86 50 84 60 84 Z" fill="#ffffff" opacity=".12"/><path d="M52 72 h16 v10 c0 6 -16 6 -16 0 Z" fill="#D0AC89"/><circle cx="37" cy="55" r="5.5" fill="#F2C9A0"/><circle cx="83" cy="55" r="5.5" fill="#F2C9A0"/><circle cx="60" cy="53" r="25" fill="#F2C9A0"/><circle cx="48" cy="60" r="4.5" fill="#F2728A" opacity=".18"/><circle cx="72" cy="60" r="4.5" fill="#F2728A" opacity=".18"/><path d="M45 47 q5 -3 10 0" stroke="#2A2536" stroke-width="2" fill="none" stroke-linecap="round" opacity=".55"/><path d="M65 47 q5 -3 10 0" stroke="#2A2536" stroke-width="2" fill="none" stroke-linecap="round" opacity=".55"/><circle cx="51" cy="53" r="2.8" fill="#2A2536"/><circle cx="69" cy="53" r="2.8" fill="#2A2536"/><path d="M60 56 v4" stroke="#C1A080" stroke-width="2" stroke-linecap="round" opacity=".6"/><path d="M52 63 q8 7 16 0" stroke="#2A2536" stroke-width="2.2" fill="none" stroke-linecap="round"/><path d="M34 52 C34 27 86 27 86 52 C86 45 79 33 60 33 C41 33 34 45 34 52 Z" fill="#C98A2E"/><g stroke="#2A2536" stroke-width="2.4" fill="#9ED7FF" fill-opacity=".18"><rect x="42" y="47" width="14" height="12" rx="5"/><rect x="64" y="47" width="14" height="12" rx="5"/><path d="M56 52 h8" fill="none"/></g></svg>